<svg width="8" height="12" viewBox="0 0 8 12" fill="none" xmlns="http://www.w3.org/2000/svg">
<path d="M4.70969 6.00019L1.16969 2.46019C0.983439 2.27283 0.878898 2.01938 0.878898 1.75519C0.878898 1.49101 0.983439 1.23756 1.16969 1.05019C1.26265 0.956464 1.37325 0.88207 1.49511 0.831301C1.61697 0.780533 1.74768 0.754395 1.87969 0.754395C2.0117 0.754395 2.14241 0.780533 2.26427 0.831301C2.38613 0.88207 2.49673 0.956464 2.58969 1.05019L6.82969 5.29019C6.92342 5.38316 6.99781 5.49376 7.04858 5.61562C7.09935 5.73748 7.12549 5.86818 7.12549 6.00019C7.12549 6.1322 7.09935 6.26291 7.04858 6.38477C6.99781 6.50663 6.92342 6.61723 6.82969 6.71019L2.58969 11.0002C2.49625 11.0929 2.38543 11.1662 2.2636 11.216C2.14176 11.2657 2.0113 11.291 1.87969 11.2902C1.74808 11.291 1.61762 11.2657 1.49578 11.216C1.37395 11.1662 1.26313 11.0929 1.16969 11.0002C0.983439 10.8128 0.878898 10.5594 0.878898 10.2952C0.878898 10.031 0.983439 9.77756 1.16969 9.59019L4.70969 6.00019Z" fill="#606060"/>
</svg>